<mxfile host="app.diagrams.net" modified="2022-04-13T11:54:04.163Z" agent="5.0 (Windows NT 10.0; Win64; x64) AppleWebKit/537.36 (KHTML, like Gecko) Chrome/100.0.4896.75 Safari/537.36" etag="i8kTrISkDXTFAMYDY9oZ" version="17.4.3" type="github">
  <diagram id="C5RBs43oDa-KdzZeNtuy" name="Page-1">
    <mxGraphModel dx="1038" dy="1716" grid="1" gridSize="10" guides="1" tooltips="1" connect="1" arrows="1" fold="1" page="1" pageScale="1" pageWidth="827" pageHeight="1169" math="0" shadow="0">
      <root>
        <mxCell id="WIyWlLk6GJQsqaUBKTNV-0" />
        <mxCell id="WIyWlLk6GJQsqaUBKTNV-1" parent="WIyWlLk6GJQsqaUBKTNV-0" />
        <mxCell id="YtRB11wtSp8Mzxa6hK0c-66" style="edgeStyle=orthogonalEdgeStyle;rounded=0;orthogonalLoop=1;jettySize=auto;html=1;exitX=0.5;exitY=1;exitDx=0;exitDy=0;" edge="1" parent="WIyWlLk6GJQsqaUBKTNV-1" source="YtRB11wtSp8Mzxa6hK0c-14" target="YtRB11wtSp8Mzxa6hK0c-26">
          <mxGeometry relative="1" as="geometry" />
        </mxCell>
        <mxCell id="YtRB11wtSp8Mzxa6hK0c-67" style="edgeStyle=orthogonalEdgeStyle;rounded=0;orthogonalLoop=1;jettySize=auto;html=1;exitX=1;exitY=1;exitDx=0;exitDy=0;" edge="1" parent="WIyWlLk6GJQsqaUBKTNV-1" source="YtRB11wtSp8Mzxa6hK0c-14" target="YtRB11wtSp8Mzxa6hK0c-18">
          <mxGeometry relative="1" as="geometry" />
        </mxCell>
        <mxCell id="YtRB11wtSp8Mzxa6hK0c-68" style="edgeStyle=orthogonalEdgeStyle;rounded=0;orthogonalLoop=1;jettySize=auto;html=1;exitX=1;exitY=0.5;exitDx=0;exitDy=0;entryX=0.75;entryY=0;entryDx=0;entryDy=0;" edge="1" parent="WIyWlLk6GJQsqaUBKTNV-1" source="YtRB11wtSp8Mzxa6hK0c-14" target="YtRB11wtSp8Mzxa6hK0c-34">
          <mxGeometry relative="1" as="geometry" />
        </mxCell>
        <mxCell id="YtRB11wtSp8Mzxa6hK0c-70" style="edgeStyle=orthogonalEdgeStyle;rounded=0;orthogonalLoop=1;jettySize=auto;html=1;entryX=0;entryY=0;entryDx=0;entryDy=0;" edge="1" parent="WIyWlLk6GJQsqaUBKTNV-1" source="YtRB11wtSp8Mzxa6hK0c-14" target="YtRB11wtSp8Mzxa6hK0c-46">
          <mxGeometry relative="1" as="geometry" />
        </mxCell>
        <mxCell id="YtRB11wtSp8Mzxa6hK0c-72" style="edgeStyle=orthogonalEdgeStyle;rounded=0;orthogonalLoop=1;jettySize=auto;html=1;entryX=0.75;entryY=0;entryDx=0;entryDy=0;fontColor=#FF33FF;" edge="1" parent="WIyWlLk6GJQsqaUBKTNV-1" source="YtRB11wtSp8Mzxa6hK0c-14" target="YtRB11wtSp8Mzxa6hK0c-42">
          <mxGeometry relative="1" as="geometry" />
        </mxCell>
        <mxCell id="YtRB11wtSp8Mzxa6hK0c-14" value="USER" style="swimlane;fontStyle=0;childLayout=stackLayout;horizontal=1;startSize=50;horizontalStack=0;resizeParent=1;resizeParentMax=0;resizeLast=0;collapsible=1;marginBottom=0;fillColor=#dae8fc;strokeColor=#6c8ebf;gradientColor=#7ea6e0;" vertex="1" collapsed="1" parent="WIyWlLk6GJQsqaUBKTNV-1">
          <mxGeometry x="400" y="50" width="60" height="40" as="geometry">
            <mxRectangle x="370" y="40" width="140" height="60" as="alternateBounds" />
          </mxGeometry>
        </mxCell>
        <mxCell id="YtRB11wtSp8Mzxa6hK0c-18" value="APPOINTMENT" style="swimlane;fontStyle=0;childLayout=stackLayout;horizontal=1;startSize=60;horizontalStack=0;resizeParent=1;resizeParentMax=0;resizeLast=0;collapsible=1;marginBottom=0;fillColor=#dae8fc;gradientColor=#7ea6e0;strokeColor=#6c8ebf;" vertex="1" collapsed="1" parent="WIyWlLk6GJQsqaUBKTNV-1">
          <mxGeometry x="470" y="170" width="117.5" height="30" as="geometry">
            <mxRectangle x="390" y="230" width="140" height="60" as="alternateBounds" />
          </mxGeometry>
        </mxCell>
        <mxCell id="YtRB11wtSp8Mzxa6hK0c-69" style="edgeStyle=orthogonalEdgeStyle;rounded=0;orthogonalLoop=1;jettySize=auto;html=1;entryX=0.75;entryY=1;entryDx=0;entryDy=0;" edge="1" parent="WIyWlLk6GJQsqaUBKTNV-1" source="YtRB11wtSp8Mzxa6hK0c-22" target="YtRB11wtSp8Mzxa6hK0c-14">
          <mxGeometry relative="1" as="geometry" />
        </mxCell>
        <mxCell id="YtRB11wtSp8Mzxa6hK0c-22" value="MED REMINDER" style="swimlane;fontStyle=0;childLayout=stackLayout;horizontal=1;startSize=30;horizontalStack=0;resizeParent=1;resizeParentMax=0;resizeLast=0;collapsible=1;marginBottom=0;fillColor=#dae8fc;gradientColor=#7ea6e0;strokeColor=#6c8ebf;" vertex="1" collapsed="1" parent="WIyWlLk6GJQsqaUBKTNV-1">
          <mxGeometry x="390" y="302.5" width="127.5" height="30" as="geometry">
            <mxRectangle x="90" y="410" width="140" height="60" as="alternateBounds" />
          </mxGeometry>
        </mxCell>
        <mxCell id="YtRB11wtSp8Mzxa6hK0c-61" style="edgeStyle=orthogonalEdgeStyle;rounded=0;orthogonalLoop=1;jettySize=auto;html=1;" edge="1" parent="WIyWlLk6GJQsqaUBKTNV-1" source="YtRB11wtSp8Mzxa6hK0c-26">
          <mxGeometry relative="1" as="geometry">
            <mxPoint x="250" y="200" as="targetPoint" />
          </mxGeometry>
        </mxCell>
        <mxCell id="YtRB11wtSp8Mzxa6hK0c-26" value="CONTACT" style="swimlane;fontStyle=0;childLayout=stackLayout;horizontal=1;startSize=25;horizontalStack=0;resizeParent=1;resizeParentMax=0;resizeLast=0;collapsible=1;marginBottom=0;fillColor=#dae8fc;gradientColor=#7ea6e0;strokeColor=#6c8ebf;" vertex="1" collapsed="1" parent="WIyWlLk6GJQsqaUBKTNV-1">
          <mxGeometry x="324" y="230" width="90" height="25" as="geometry">
            <mxRectangle x="630" y="300" width="140" height="60" as="alternateBounds" />
          </mxGeometry>
        </mxCell>
        <mxCell id="YtRB11wtSp8Mzxa6hK0c-34" value="MEDICINE" style="swimlane;fontStyle=0;childLayout=stackLayout;horizontal=1;startSize=55;horizontalStack=0;resizeParent=1;resizeParentMax=0;resizeLast=0;collapsible=1;marginBottom=0;fillColor=#dae8fc;strokeColor=#6c8ebf;gradientColor=#7ea6e0;" vertex="1" collapsed="1" parent="WIyWlLk6GJQsqaUBKTNV-1">
          <mxGeometry x="630" y="115" width="100" height="25" as="geometry">
            <mxRectangle x="580" y="110" width="140" height="60" as="alternateBounds" />
          </mxGeometry>
        </mxCell>
        <mxCell id="YtRB11wtSp8Mzxa6hK0c-57" value="" style="edgeStyle=orthogonalEdgeStyle;rounded=0;orthogonalLoop=1;jettySize=auto;html=1;" edge="1" parent="WIyWlLk6GJQsqaUBKTNV-1" source="YtRB11wtSp8Mzxa6hK0c-42" target="YtRB11wtSp8Mzxa6hK0c-52">
          <mxGeometry relative="1" as="geometry">
            <Array as="points">
              <mxPoint x="215" y="130" />
            </Array>
          </mxGeometry>
        </mxCell>
        <mxCell id="YtRB11wtSp8Mzxa6hK0c-42" value="PHARMACY" style="swimlane;fontStyle=0;childLayout=stackLayout;horizontal=1;startSize=60;horizontalStack=0;resizeParent=1;resizeParentMax=0;resizeLast=0;collapsible=1;marginBottom=0;fillColor=#dae8fc;gradientColor=#7ea6e0;strokeColor=#6c8ebf;" vertex="1" collapsed="1" parent="WIyWlLk6GJQsqaUBKTNV-1">
          <mxGeometry x="170" y="160" width="90" height="30" as="geometry">
            <mxRectangle x="130" y="100" width="140" height="60" as="alternateBounds" />
          </mxGeometry>
        </mxCell>
        <mxCell id="YtRB11wtSp8Mzxa6hK0c-46" value="INFORMATIONAL&#xa;SEMINAR" style="swimlane;fontStyle=0;childLayout=stackLayout;horizontal=1;startSize=60;horizontalStack=0;resizeParent=1;resizeParentMax=0;resizeLast=0;collapsible=1;marginBottom=0;fillColor=#dae8fc;strokeColor=#6c8ebf;gradientColor=#7ea6e0;" vertex="1" collapsed="1" parent="WIyWlLk6GJQsqaUBKTNV-1">
          <mxGeometry x="610" y="207.5" width="120" height="47.5" as="geometry">
            <mxRectangle x="220" y="290" width="140" height="60" as="alternateBounds" />
          </mxGeometry>
        </mxCell>
        <mxCell id="YtRB11wtSp8Mzxa6hK0c-52" value="PHARMACIST" style="shape=umlActor;verticalLabelPosition=bottom;verticalAlign=top;html=1;outlineConnect=0;" vertex="1" parent="WIyWlLk6GJQsqaUBKTNV-1">
          <mxGeometry x="40" y="90" width="30" height="60" as="geometry" />
        </mxCell>
        <mxCell id="YtRB11wtSp8Mzxa6hK0c-59" value="costumer support&amp;nbsp;" style="rounded=0;whiteSpace=wrap;html=1;fillColor=#f5f5f5;gradientColor=#b3b3b3;strokeColor=#666666;" vertex="1" parent="WIyWlLk6GJQsqaUBKTNV-1">
          <mxGeometry x="300" y="130" width="100" height="20" as="geometry" />
        </mxCell>
        <mxCell id="YtRB11wtSp8Mzxa6hK0c-64" style="edgeStyle=orthogonalEdgeStyle;rounded=0;orthogonalLoop=1;jettySize=auto;html=1;exitX=0.5;exitY=0;exitDx=0;exitDy=0;" edge="1" parent="WIyWlLk6GJQsqaUBKTNV-1" source="YtRB11wtSp8Mzxa6hK0c-62">
          <mxGeometry relative="1" as="geometry">
            <mxPoint x="170" y="200" as="targetPoint" />
          </mxGeometry>
        </mxCell>
        <mxCell id="YtRB11wtSp8Mzxa6hK0c-62" value="contact pharmacy" style="rounded=0;whiteSpace=wrap;html=1;fillColor=#f5f5f5;gradientColor=#b3b3b3;strokeColor=#666666;" vertex="1" parent="WIyWlLk6GJQsqaUBKTNV-1">
          <mxGeometry x="130" y="200" width="90" height="30" as="geometry" />
        </mxCell>
        <mxCell id="YtRB11wtSp8Mzxa6hK0c-63" style="edgeStyle=orthogonalEdgeStyle;rounded=0;orthogonalLoop=1;jettySize=auto;html=1;exitX=0.5;exitY=0.5;exitDx=0;exitDy=0;exitPerimeter=0;entryX=0.5;entryY=0;entryDx=0;entryDy=0;entryPerimeter=0;" edge="1" parent="WIyWlLk6GJQsqaUBKTNV-1" source="YtRB11wtSp8Mzxa6hK0c-52" target="YtRB11wtSp8Mzxa6hK0c-52">
          <mxGeometry relative="1" as="geometry" />
        </mxCell>
        <mxCell id="YtRB11wtSp8Mzxa6hK0c-71" value="&lt;h1&gt;&lt;font color=&quot;#ff33ff&quot;&gt;DOMAIN MODEL&lt;/font&gt;&lt;/h1&gt;" style="text;html=1;strokeColor=none;fillColor=none;spacing=5;spacingTop=-20;whiteSpace=wrap;overflow=hidden;rounded=0;" vertex="1" parent="WIyWlLk6GJQsqaUBKTNV-1">
          <mxGeometry x="330" width="220" height="40" as="geometry" />
        </mxCell>
      </root>
    </mxGraphModel>
  </diagram>
</mxfile>
